<?xml version="1.0" standalone="no"?>
<!DOCTYPE svg PUBLIC "-//W3C//DTD SVG 20010904//EN"
 "http://www.w3.org/TR/2001/REC-SVG-20010904/DTD/svg10.dtd">
<svg version="1.0" xmlns="http://www.w3.org/2000/svg"
 width="863.000000pt" height="1280.000000pt" viewBox="0 0 863.000000 1280.000000"
 preserveAspectRatio="xMidYMid meet">
<g transform="translate(0.000000,1280.000000) scale(0.100000,-0.100000)"
fill="#000000" stroke="none">
<path d="M7298 12741 c-35 -40 -51 -49 -85 -54 -81 -10 -223 -90 -223 -125 1
-9 19 -29 40 -44 22 -15 40 -34 40 -42 0 -12 -628 -794 -691 -860 -18 -19 -20
-19 -56 -2 l-37 18 -31 -34 c-77 -87 -265 -318 -313 -384 -52 -72 -53 -74 -41
-112 10 -33 9 -43 -5 -65 -32 -48 -79 -61 -202 -59 -86 2 -113 0 -123 -11 -9
-12 -6 -18 14 -31 33 -22 129 -46 182 -46 58 0 66 -21 46 -115 -9 -43 -12 -93
-9 -128 7 -67 -8 -110 -55 -169 -16 -21 -41 -61 -56 -90 -34 -68 -35 -165 -3
-250 27 -74 98 -170 150 -204 22 -15 40 -30 40 -34 0 -26 -110 -120 -247 -212
-87 -59 -192 -134 -233 -167 -41 -34 -85 -61 -97 -61 -13 0 -47 12 -77 27
l-55 27 -68 -60 c-219 -191 -489 -511 -583 -691 -19 -37 -27 -43 -54 -43 -20
0 -35 -7 -43 -19 -8 -13 -29 -21 -70 -26 -181 -21 -408 -86 -656 -187 l-148
-60 -48 21 c-26 11 -133 62 -238 114 -105 52 -237 108 -294 126 -57 18 -110
36 -118 40 -16 8 -46 85 -61 157 -13 59 -19 66 -76 82 -22 7 -48 20 -57 30
-20 22 -75 185 -84 247 l-6 46 64 -8 c101 -12 316 -7 395 10 86 19 164 56 194
94 21 27 23 59 9 137 -3 15 8 24 53 42 73 28 128 62 128 78 0 9 -19 9 -83 -2
-46 -8 -95 -12 -110 -9 -23 6 -25 13 -29 62 -4 72 -3 75 40 75 l37 1 -37 19
c-20 11 -39 24 -43 30 -3 5 -12 53 -21 107 -11 79 -19 102 -40 124 -21 22 -25
34 -22 70 3 41 6 45 48 65 25 12 54 31 64 43 l19 21 -36 0 c-46 0 -52 11 -29
57 43 85 74 205 70 278 l-3 70 59 35 58 34 -42 39 c-41 39 -76 100 -66 116 3
4 97 11 208 14 112 4 318 18 458 32 395 39 359 31 407 81 57 59 71 124 49 231
-26 128 -54 172 -216 334 -80 80 -173 165 -208 188 -91 61 -332 176 -437 208
-83 25 -103 27 -268 28 -175 0 -177 0 -177 22 0 44 43 319 65 417 15 65 20
105 14 111 -16 16 -169 8 -291 -15 -222 -41 -466 -118 -713 -223 -112 -47
-142 -56 -215 -61 -114 -8 -344 -49 -455 -81 -173 -51 -303 -120 -494 -262
-127 -96 -298 -255 -342 -319 -35 -51 -58 -129 -43 -144 48 -48 514 -205 922
-310 23 -6 42 -14 42 -18 0 -5 -21 -18 -47 -31 -73 -35 -147 -96 -187 -154
-59 -86 -59 -177 2 -249 24 -28 27 -40 28 -112 1 -82 25 -158 60 -187 28 -23
16 -48 -27 -59 -104 -28 -192 36 -206 150 -5 47 -7 50 -22 35 -13 -13 -16 -40
-16 -143 0 -124 1 -129 33 -194 41 -85 109 -146 216 -198 100 -48 180 -64 293
-58 69 3 102 10 151 33 37 17 66 24 72 19 11 -12 42 -336 34 -358 -8 -21 -23
-20 -54 4 -44 35 -38 21 15 -32 l52 -53 7 -169 c10 -282 7 -477 -10 -603 -25
-174 -25 -559 -1 -671 23 -102 55 -199 92 -272 69 -138 311 -416 483 -555 154
-123 224 -274 303 -655 28 -134 32 -175 32 -300 0 -121 -4 -160 -24 -235 l-24
-90 -185 -159 c-221 -189 -267 -227 -655 -534 -593 -469 -845 -672 -1016 -819
-96 -82 -277 -236 -404 -343 -235 -199 -425 -381 -497 -476 l-40 -54 37 -67
c59 -110 159 -253 228 -328 l64 -70 127 118 c70 64 134 117 142 117 8 0 43
-23 77 -52 166 -139 574 -372 824 -472 131 -52 377 -114 387 -97 3 4 15 72 26
152 110 755 311 1291 775 2069 90 151 98 160 277 340 354 357 659 741 804
1014 30 58 61 106 68 106 18 0 66 -169 66 -232 0 -59 -41 -242 -94 -423 -19
-65 -32 -123 -30 -127 3 -4 27 -8 54 -8 63 0 80 -7 80 -35 0 -29 -95 -284
-112 -301 -11 -11 -30 -10 -112 6 -154 31 -149 33 -180 -52 -14 -40 -57 -176
-95 -303 -38 -126 -99 -322 -135 -435 -82 -251 -128 -435 -151 -601 -15 -115
-15 -129 -1 -157 18 -36 62 -74 105 -91 17 -8 31 -19 31 -25 0 -6 -72 -84
-160 -174 -347 -355 -520 -623 -714 -1110 -117 -292 -149 -435 -149 -667 -1
-150 3 -184 27 -289 27 -115 74 -264 114 -357 11 -25 17 -50 14 -55 -4 -5 -52
-24 -107 -43 -324 -108 -628 -281 -800 -455 -108 -110 -150 -204 -178 -394
-14 -92 -12 -100 21 -83 9 6 73 25 142 44 69 20 198 63 285 98 221 86 759 361
871 445 28 20 28 20 11 56 -9 20 -17 46 -17 57 0 61 67 141 118 141 36 0 88
-33 110 -69 l18 -30 33 20 c28 17 32 23 26 49 -16 74 105 602 210 915 35 105
93 262 130 350 79 191 255 553 327 674 234 390 589 831 1073 1329 l167 172 64
0 c85 0 163 -35 269 -122 187 -152 301 -293 516 -638 179 -286 232 -392 337
-680 175 -480 252 -957 222 -1385 -6 -88 -13 -198 -15 -245 -11 -188 -37 -379
-59 -431 -9 -21 18 -29 95 -29 l57 0 23 48 c31 62 92 95 162 89 59 -5 79 -23
86 -79 l6 -43 793 -3 c575 -1 792 1 792 9 0 22 -119 128 -217 192 -119 80
-301 168 -403 196 -215 59 -600 107 -761 96 -64 -4 -99 -3 -103 4 -4 6 25 59
63 117 262 396 322 745 226 1311 -64 375 -242 918 -429 1308 -81 169 -205 393
-277 505 -44 67 -49 80 -49 131 0 82 -26 220 -62 329 -65 200 -185 389 -338
534 l-82 76 -78 0 c-89 0 -94 3 -128 77 l-24 50 26 51 c58 114 22 209 -97 262
-46 21 -49 24 -121 168 -41 81 -99 194 -130 251 -59 109 -65 131 -42 131 8 0
104 -38 212 -85 109 -47 205 -85 213 -85 8 0 43 30 77 68 l62 67 93 -34 c52
-18 137 -47 189 -63 130 -42 160 -55 160 -73 0 -8 -14 -38 -32 -66 -32 -52
-40 -95 -25 -136 10 -27 -16 -46 -105 -77 -60 -20 -63 -23 -66 -56 -6 -74 66
-139 237 -216 162 -73 223 -71 236 6 4 22 18 54 32 70 21 26 32 30 73 30 59 0
94 14 110 45 11 21 19 23 81 22 63 -2 70 0 101 29 24 23 46 33 82 38 27 3 58
13 67 22 20 18 36 16 109 -11 86 -32 199 -3 283 74 24 23 52 41 61 41 10 0 46
-16 80 -35 77 -43 98 -44 126 -5 12 16 26 30 33 30 6 0 197 -100 424 -221 228
-122 421 -222 430 -223 16 -1 101 124 102 151 1 7 -12 19 -29 28 -28 14 -30
20 -30 69 0 38 -5 57 -17 68 -23 20 -138 78 -155 78 -7 0 -26 -16 -43 -35
l-30 -35 -405 216 c-223 118 -470 254 -550 302 -168 100 -329 182 -357 182
-30 0 -146 112 -193 186 -33 52 -46 65 -63 62 -16 -2 -23 -11 -25 -31 -3 -22
6 -39 38 -73 44 -48 66 -92 52 -106 -5 -5 -30 4 -58 22 -27 16 -75 35 -106 42
-60 13 -72 10 -149 -39 -26 -17 -30 -16 -125 29 -55 26 -129 58 -166 73 -92
37 -97 45 -59 94 l32 40 -48 24 c-26 14 -106 50 -178 80 -439 187 -1164 558
-1271 650 l-27 24 24 17 c13 9 71 48 129 85 119 76 143 96 580 451 173 141
430 348 570 459 140 111 257 206 258 211 2 6 -71 47 -162 91 -91 45 -166 85
-166 90 0 4 24 36 53 71 89 107 153 190 200 263 24 39 53 77 63 86 21 18 111
45 134 40 35 -7 100 -95 100 -135 0 -24 29 -46 61 -46 23 0 44 13 86 53 71 66
217 238 250 295 26 44 26 44 6 70 -10 15 -44 40 -74 55 -36 19 -53 34 -52 45
1 9 5 38 9 63 5 35 1 57 -15 93 -19 45 -20 50 -5 84 39 89 7 220 -62 261 -22
13 -34 28 -34 42 0 12 -5 39 -11 60 l-12 38 73 78 c88 95 162 205 179 266 19
65 -4 139 -63 204 l-44 49 19 34 c26 49 24 57 -19 79 -75 38 -80 27 109 277
l171 228 -27 22 c-34 27 -28 51 24 96 21 18 45 47 54 65 17 33 63 93 316 411
116 146 151 196 142 205 -6 7 -46 41 -90 75 l-80 62 -43 -49z m-657 -1634 c68
-45 90 -148 48 -229 -24 -46 -157 -188 -177 -188 -31 0 -22 35 25 103 62 89
113 188 113 221 0 31 -47 71 -94 80 -35 7 -43 15 -29 29 15 15 82 6 114 -16z
m534 -4871 c54 -24 55 -26 55 -65 0 -37 -3 -42 -40 -61 -63 -32 -92 -23 -49
16 28 25 18 69 -24 105 -42 36 -18 38 58 5z"/>
</g>
</svg>
